<?xml version="1.0" encoding="UTF-8" standalone="no"?>
<svg width="55px" height="46px" viewBox="0 0 55 46" version="1.1" xmlns="http://www.w3.org/2000/svg" xmlns:xlink="http://www.w3.org/1999/xlink" xmlns:sketch="http://www.bohemiancoding.com/sketch/ns">
    <!-- Generator: Sketch 3.0.4 (8053) - http://www.bohemiancoding.com/sketch -->
    <title>Group 2569</title>
    <desc>Created with Sketch.</desc>
    <defs></defs>
    <g id="Page-1" stroke="none" stroke-width="1" fill="none" fill-rule="evenodd" sketch:type="MSPage">
        <g id="Group-2569" sketch:type="MSLayerGroup" transform="translate(1.000000, 0.000000)" fill="#8A8B87">
            <path d="M15.857,4 L53.857,4 L53.857,6 L15.857,6 L15.857,4 Z" id="Fill-2562" sketch:type="MSShapeGroup"></path>
            <path d="M15.857,22 L53.857,22 L53.857,24 L15.857,24 L15.857,22 Z" id="Fill-2564" sketch:type="MSShapeGroup"></path>
            <path d="M15.857,40 L53.857,40 L53.857,42 L15.857,42 L15.857,40 Z" id="Fill-2565" sketch:type="MSShapeGroup"></path>
            <path d="M4.857,0 C2.1,0 -0.143,2.242 -0.143,5 C-0.143,7.764 2.1,10 4.857,10 C7.615,10 9.857,7.764 9.857,5 C9.857,2.242 7.615,0 4.857,0" id="Fill-2566" sketch:type="MSShapeGroup"></path>
            <path d="M4.857,18 C2.1,18 -0.143,20.242 -0.143,23 C-0.143,25.764 2.1,28 4.857,28 C7.615,28 9.857,25.764 9.857,23 C9.857,20.242 7.615,18 4.857,18" id="Fill-2567" sketch:type="MSShapeGroup"></path>
            <path d="M4.857,36 C2.1,36 -0.143,38.242 -0.143,41 C-0.143,43.764 2.1,46 4.857,46 C7.615,46 9.857,43.764 9.857,41 C9.857,38.242 7.615,36 4.857,36" id="Fill-2568" sketch:type="MSShapeGroup"></path>
        </g>
    </g>
</svg>